# xmcd
# 
# Track frame offsets:
#     150
#     13812
#     27387
#     41325
#     55112
#     69675
#     85625
#     99275
#     120975
#     132587
#     145425
#     162475
#     176862
#     189625
#     201637
#     214950
#     248625
#     267450
#     280887
#     293837
# 
# Disc length: 4082
# 
# Revision: 1
# Processed by: cddbd v1.5.2PL0 Copyright (c) Steve Scherf et al.
# Submitted via: fre:ac v1.0.27
# 
DISCID=380ff014
DTITLE=JACKSON_5 - Lucky_Sounds
DYEAR=1995
DGENRE=Soul
TTITLE0=I want U back
TTITLE1=A B C
TTITLE2=The love U save
TTITLE3=One more chance
TTITLE4=Mama's pearl
TTITLE5=Goin' back to Indiana
TTITLE6=Never can say goodbye
TTITLE7=Maybe Tomorrow
TTITLE8=Sugar Daddy
TTITLE9=Little bitty pretty one
TTITLE10=Lookin' trough the windows
TTITLE11=Skywriter
TTITLE12=Get it together
TTITLE13=Dancing machine
TTITLE14=Whatever U got, i want
TTITLE15=I am love
TTITLE16=Body language
TTITLE17=2-4-6-8
TTITLE18=the young folks
TTITLE19=(Come' round here) I'm the one U need
EXTD=By jojo971
EXTT0=
EXTT1=
EXTT2=
EXTT3=
EXTT4=
EXTT5=
EXTT6=
EXTT7=
EXTT8=
EXTT9=
EXTT10=
EXTT11=
EXTT12=
EXTT13=
EXTT14=
EXTT15=
EXTT16=
EXTT17=
EXTT18=
EXTT19=
PLAYORDER=
